<?xml version="1.0" encoding="utf-8"?>
<!-- Generator: Adobe Illustrator 27.0.0, SVG Export Plug-In . SVG Version: 6.00 Build 0)  -->
<svg version="1.1" id="Layer_1" xmlns="http://www.w3.org/2000/svg" xmlns:xlink="http://www.w3.org/1999/xlink" x="0px" y="0px"
	 viewBox="0 0 670 670" style="enable-background:new 0 0 670 670;" xml:space="preserve">
<style type="text/css">
	.st0{fill:#D32F2F;}
	.st1{fill:#FEFDFD;}
	.st2{fill:#FF8D69;}
	.st3{fill:#E74743;}
</style>
<path class="st0" d="M335,47C175.9,47,47,175.9,47,335s128.9,288,288,288s288-128.9,288-288S494.1,47,335,47z"/>
<path class="st1" d="M216.6,264.8l-20-84.4L150,226.5l38.7,72.5C196.1,286.2,205.6,274.7,216.6,264.8z M272.4,233.5l19.1-104.9
	c-2.5,0.9-73.5,28.9-73.5,28.9l9.8,98.3C241,246,256,238.4,272.4,233.5z M317,227c6.4,0,12.9,0.6,19.4,1.5l68.7-109.3l-84.5-0.2
	l-35.2,111.2C295.6,228.2,306.1,227,317,227z M397,249.7l125.2-99.9L433,119l-84.8,111.5C365.6,234.2,382.4,240.8,397,249.7z
	 M182.7,310.5l-40.6-56.3L119,305.5l52.5,41.6C173.6,334.2,177.4,321.9,182.7,310.5z M189,441.6l-41.2,5.8l21.4,26.6l33.1-13.6
	C197.4,454.4,192.9,448.2,189,441.6z M174.8,408.3l-49.9-12.8l12.6,37.8l46.5-1.1C180.1,424.5,177.1,416.5,174.8,408.3z M169.4,371
	c0-2.5,0.2-5,0.4-7.5L122.9,330l-3.9,45.6l53.1,21.4C170.4,388.5,169.4,379.8,169.4,371z"/>
<path class="st1" d="M219.4,477.9l4.5,3.5l0.7,0.5c0-0.1,0.1-0.2,0.1-0.3c2.9-6,11.6-24.2,58.1-24.2c11.6,0,20.6,1.5,27.7,3.3
	l16.2-3.9l-29.2-61.4l-15.9,3.4l-9.6-21.5l154-103.6l-0.5-0.7l-3.2-3.6c-25-25.7-66.4-42.3-105.3-42.3c-82.8,0-147.6,63.3-147.6,144
	C169.4,411.5,187.5,450.4,219.4,477.9z"/>
<path class="st2" d="M176.6,371c0-76.7,61.7-136.8,140.4-136.8c37.3,0,76.8,16.1,100.2,40.1l2.8,3.3l12-8.1
	c-24.5-28.4-69.6-49.7-115-49.7c-87.5,0-154.8,67.7-154.8,151.2c0,47.3,22.8,89.6,58.5,117.3l0.6,0.5c1.3-2.8,2.5-5.3,3.4-7.2
	c0.7-1.4,1.7-3.6,3.5-6l-4.5-3.5C193.7,446.2,176.6,409.8,176.6,371z"/>
<path class="st2" d="M237.8,441.2C218,425,205.4,399.8,205.4,371c0-60.6,49-115.2,111.6-115.2c1.2,0,2.4,0,3.6,0l-14.4-7.2
	C240.8,253.8,191,305.9,191,371c0,29.1,11.1,57.2,30.9,79.2L237.8,441.2z"/>
<path class="st3" d="M327.8,459.1c-6.4-3.1-21.3-8.9-45-8.9c-35.2,0-53.2,13.2-58.9,18.5c-1.4,1.2-2.4,2.7-3.2,4.4L191,536.6
	c0,0,35.6-14.4,66.6-14.4c48,0,70.2,14.4,70.2,14.4l21.1-33.3L327.8,459.1z"/>
<path class="st2" d="M306.2,470c-5.4-3.6-14.8-5.4-26.8-5.4c-30.2,0-44.9,13.5-47.2,18.5c-1.1,2.2-3.5,6.9-5.1,10.3
	c0,0,21.6-14.4,43.2-19.8C282.4,470.5,293.6,470,306.2,470z"/>
<path class="st1" d="M272,377.2l9.6,21.5l188.6-40.4l-24.5-98L272,377.2z"/>
<path class="st2" d="M441.2,272l20.2,80.8l-175.6,37.6l-4.7-10.7L441.2,272z M450.2,248.6L263,374.6l14.4,32.4L479,363.8
	L450.2,248.6z"/>
<path class="st1" d="M299.6,399.8l81.3,170.9c12.2-5.1,39.9-18.8,47.2-40.9c-4.2-10.3-23-54.1-47.6-76c-6.4-5.7-10.8-8.9-14.8-11.9
	c-6.1-4.5-11.9-8.7-21.6-19.2C326.1,403.4,313.1,400.3,299.6,399.8z"/>
<path class="st2" d="M311.8,408.7c7.7,2.2,16.2,7.3,27.1,18.9c10.2,11,16.3,15.4,22.6,20.1c4,3,8.2,6,14.3,11.5
	c21.8,19.4,39.1,57.5,44.6,70.7c-6.1,14.3-23.1,25.2-36,31.4L311.8,408.7z M294.8,392.6c-2.2,0-4.3,0-6.6,0l89.1,187.2
	c0,0,49.5-16.2,58.5-50.4c0,0-20.9-54.7-50.4-81c-16.2-14.4-20.3-13.8-36-30.6C327.2,394,311.1,392.6,294.8,392.6z"/>
</svg>
