<?xml version="1.0" encoding="utf-8"?>
<!-- Generator: Adobe Illustrator 27.0.0, SVG Export Plug-In . SVG Version: 6.00 Build 0)  -->
<svg version="1.1" id="Layer_1" xmlns="http://www.w3.org/2000/svg" xmlns:xlink="http://www.w3.org/1999/xlink" x="0px" y="0px"
	 viewBox="0 0 645.9 645.9" style="enable-background:new 0 0 645.9 645.9;" xml:space="preserve">
<style type="text/css">
	.st0{fill:#080736;}
</style>
<path class="st0" d="M516.4,388.7c-7.1,16.3-15.8,31.8-25.9,46.3c-9.5,14.6-20.7,28-33.4,40c-11.2,11.6-26.4,18.4-42.5,19
	c-13.6-0.6-27-3.8-39.4-9.4c-13.4-5.9-27.8-9.1-42.5-9.4c-15,0.4-29.8,3.5-43.6,9.4c-11.9,5.5-24.7,8.8-37.8,9.9
	c-16.6-0.2-32.5-7.2-43.9-19.3c-13-12.6-24.5-26.7-34.2-41.9c-15.7-22.4-28.1-47.1-36.7-73.1c-9.9-27.9-15.2-57.3-15.7-86.9
	c-0.4-29,6.9-57.5,21.2-82.7c10.8-18.7,26.3-34.3,45-45.2c17.7-10.1,37.8-15.4,58.2-15.4c15.7,0.8,31.2,4.4,45.8,10.5
	c11.6,5.2,23.8,8.9,36.4,10.8c13.8-2.9,27.3-7,40.3-12.4c17.5-7.2,36.3-10.6,55.2-9.9c35.8,1.3,69,19.3,89.6,48.5
	c-50.8,29-68.4,93.7-39.4,144.5c4.7,8.3,10.6,15.9,17.4,22.6c9.8,9,21.1,16.2,33.4,21.2c-2.5,7.2-5.3,14.3-8.5,21.2L516.4,388.7z
	 M423.7,23.8c-0.8,25-10.6,48.9-27.6,67.3c-17.3,23.5-45,37.2-74.2,36.7c-0.3-3-0.3-6.1,0-9.1c0.9-25.2,10.7-49.4,27.6-68.1
	c9.6-10.6,21.3-19.2,34.2-25.4c12.3-6.3,25.7-10,39.4-11c0.3,3.2,0.3,6.4,0,9.7H423.7z M99.1,564.7c3,22-12.3,42.4-34.4,45.4
	c-2,0.3-4.1,0.4-6.2,0.4c-22.2,0.5-40.7-17.1-41.2-39.3c-0.1-2.2,0.1-4.3,0.4-6.5c-2.9-22.2,12.8-42.6,35-45.4
	c1.9-0.3,3.9-0.4,5.9-0.3c22.2-0.4,40.6,17.4,40.9,39.6C99.5,560.6,99.4,562.6,99.1,564.7z M31.5,564.7c0,20.1,10.2,33.1,27.6,33.1
	s27.6-13,27.6-33.1s-10.2-33.1-27.6-33.1S31.5,543.7,31.5,564.7z M120.9,598.9v10.5h-13.5v-93.2h13v36.1c4-7.4,11.8-11.9,20.1-11.6
	c16.8,0,27.6,13.2,27.6,34.2s-10.5,33.9-27.6,33.9C132.7,609.1,125.3,605.3,120.9,598.9z M120.9,576.3c0,13.8,6.9,22.3,17.9,22.3
	c11,0,17.7-8.3,17.7-22.3c0-14.1-6.6-22.3-17.7-22.3c-11,0-18.8,7.7-18.8,21.5L120.9,576.3z M189.3,611.8c0,13.5-6.9,19.9-21.2,19.9
	h-3.9v-10.8h1.9c6.9,0,9.4-2.8,9.4-9.1v-68.1h13L189.3,611.8z M174.4,523.9c0.8-4.6,5.3-7.7,9.9-6.9c3.5,0.6,6.2,3.4,6.9,6.9
	c0,4.3-3.4,7.7-7.7,7.7c-0.2,0-0.4,0-0.6,0c-4.3,0.8-8.5-2.1-9.3-6.5c-0.1-0.7-0.2-1.4-0.1-2.1L174.4,523.9z M254.1,590.6
	c-3.8,11.8-15.1,19.6-27.6,19c-16.4,0.5-30.2-12.5-30.6-28.9c0-1.7,0-3.3,0.3-5c-2.3-16.6,9.3-31.9,25.9-34.2
	c1.5-0.2,2.9-0.3,4.4-0.3c18.5,0,29.5,12.4,29.5,33.1v4.7h-47.7c-0.8,9.7,6.5,18.2,16.2,19c0.5,0,1,0.1,1.4,0.1
	c6.4,1.1,12.9-1.9,16.3-7.4L254.1,590.6z M208.3,569.4h33.9c0.6-8.8-6-16.5-14.9-17.1c-0.5,0-0.9,0-1.4,0c-9.3-0.5-17.2,6.7-17.6,16
	C208.3,568.6,208.3,569,208.3,569.4z M304.6,564.1c-1.7-7.1-8.4-11.9-15.7-11.3c-10.8,0-17.7,8.3-17.7,22.3
	c0,14.1,6.9,22.9,17.7,22.9c7.2,0.8,13.9-3.8,15.7-10.8h12.7c-2.5,13.2-14.2,22.6-27.6,22.3c-16.7,0.5-30.7-12.7-31.2-29.5
	c0-1.7,0-3.3,0.3-5c-2.1-16.5,9.5-31.5,25.9-33.7c1.6-0.2,3.3-0.3,5-0.2c13.6-0.2,25.3,9.5,27.6,22.9H304.6z M341.3,526.1v17.7h14.3
	v11h-14.3v33.9c0,6.9,2.8,9.9,9.4,9.9h5v10.8c-2.4,0.3-4.8,0.3-7.2,0c-14.3,0-20.1-5.2-20.1-17.9v-37.8h-10.5v-9.9h10.5v-16.5
	L341.3,526.1z M360,523c-0.5-4.7,3-8.9,7.7-9.3c4.7-0.5,8.9,3,9.3,7.7c0.5,4.7-3,8.9-7.7,9.3c-0.4,0-0.7,0-1.1,0
	C363.9,530.9,360.2,527.5,360,523C360,523,360,523,360,523z M361.9,542.3h13v66.2h-13V542.3z M417.1,608.5H403l-22.9-64.8h13.8
	l16.5,52.1l16.5-52.1h13.8L417.1,608.5z M497.9,590.6c-3.8,11.8-15.1,19.6-27.6,19c-16.4,0.5-30.2-12.5-30.6-28.9c0-1.7,0-3.3,0.3-5
	c-2.3-16.6,9.3-31.9,25.9-34.2c1.5-0.2,2.9-0.3,4.4-0.3c18.5,0,29.5,12.4,29.5,33.1v4.7h-48c-0.8,9.7,6.5,18.2,16.2,19
	c0.5,0,1,0.1,1.4,0.1c6.4,0.7,12.6-2.4,15.7-8L497.9,590.6z M452.1,569.4h33.4c0.6-8.8-6-16.5-14.9-17.1c-0.5,0-0.9,0-1.4,0
	c-9.3-0.3-17.1,7-17.4,16.3c0,0.3,0,0.6,0,0.8H452.1z M505.4,579.6v-12.7h40.3v12.7H505.4z M552.8,564.7c0-27.6,15.2-45.8,39.4-45.8
	c18.1-0.7,33.7,12.4,36.1,30.3h-13.5c-2.5-10.6-12-17.9-22.9-17.7c-15.7,0-25.7,12.7-25.7,33.1s9.9,33.1,25.7,33.1
	c10.5,0.8,20-5.9,22.9-16h13.5c-3.3,17.1-19,29-36.4,27.6c-24.3,1.1-39.4-16.3-39.4-44.7L552.8,564.7z"/>
</svg>
