<?xml version="1.0" encoding="utf-8"?>
<!-- Generator: Adobe Illustrator 27.0.0, SVG Export Plug-In . SVG Version: 6.00 Build 0)  -->
<svg version="1.1" id="Layer_1" xmlns="http://www.w3.org/2000/svg" xmlns:xlink="http://www.w3.org/1999/xlink" x="0px" y="0px"
	 viewBox="0 0 575.6 575.6" style="enable-background:new 0 0 575.6 575.6;" xml:space="preserve">
<style type="text/css">
	.st0{fill:url(#SVGID_1_);}
	.st1{fill:none;stroke:#FFFFFF;stroke-width:20;stroke-miterlimit:10;}
	.st2{fill:#FFFFFF;}
</style>
<g id="Layer_1_00000131343525458025160310000002247663152182983825_">
</g>
<linearGradient id="SVGID_1_" gradientUnits="userSpaceOnUse" x1="-24.6904" y1="601.5574" x2="587.1144" y2="-7.9315" gradientTransform="matrix(1 0 0 -1 0 578)">
	<stop  offset="0.2409" style="stop-color:#31C4FF"/>
	<stop  offset="0.4655" style="stop-color:#369AE5"/>
	<stop  offset="0.8278" style="stop-color:#3D5CBD"/>
	<stop  offset="1" style="stop-color:#4044AE"/>
</linearGradient>
<path class="st0" d="M508.6,575.6H67.1c-37,0-67.1-30-67.1-67.1V67.1C0,30,30,0,67.1,0h441.5c37,0,67.1,30,67.1,67.1v441.5
	C575.7,545.6,545.6,575.6,508.6,575.6z"/>
<circle class="st1" cx="287.8" cy="287.8" r="244.9"/>
<g>
	<path class="st2" d="M90.3,228.3c6.9-1.2,16-2.2,27.5-2.2c14.2,0,24.5,3.4,31.1,9.6c6.1,5.5,9.7,13.8,9.7,24.1
		c0,10.4-3,18.6-8.6,24.6c-7.6,8.4-19.9,12.6-33.9,12.6c-4.3,0-8.2-0.2-11.5-1v46H90.3V228.3z M104.6,283.7
		c3.1,0.9,7.1,1.2,11.9,1.2c17.3,0,27.8-8.7,27.8-24.6c0-15.2-10.4-22.5-26.2-22.5c-6.3,0-11,0.5-13.5,1.2
		C104.6,239,104.6,283.7,104.6,283.7z"/>
	<path class="st2" d="M217.3,342l-1.2-10.4h-0.5c-4.4,6.5-13,12.3-24.4,12.3c-16.1,0-24.4-11.8-24.4-23.7c0-20,17.1-30.9,47.9-30.7
		v-1.7c0-6.8-1.8-19.1-18.1-19.1c-7.4,0-15.2,2.4-20.8,6.1l-3.3-9.9c6.6-4.4,16.1-7.3,26.2-7.3c24.4,0,30.3,17.2,30.3,33.8v30.9
		c0,7.2,0.3,14.2,1.3,19.8L217.3,342L217.3,342z M215.1,299.8c-15.8-0.3-33.8,2.6-33.8,18.6c0,9.7,6.3,14.3,13.7,14.3
		c10.4,0,17-6.8,19.3-13.8c0.5-1.5,0.8-3.2,0.8-4.8V299.8z"/>
	<path class="st2" d="M250.5,326.6c4.3,2.9,11.9,6,19.1,6c10.5,0,15.5-5.5,15.5-12.3c0-7.2-4.1-11.1-14.8-15.2
		c-14.3-5.3-21.1-13.5-21.1-23.4c0-13.3,10.4-24.2,27.5-24.2c8.1,0,15.2,2.4,19.6,5.1l-3.6,10.9c-3.1-2-8.9-4.8-16.3-4.8
		c-8.6,0-13.3,5.1-13.3,11.3c0,6.8,4.8,9.9,15.2,14c13.8,5.5,20.9,12.6,20.9,24.9c0,14.5-10.9,24.8-29.8,24.8
		c-8.7,0-16.8-2.2-22.4-5.6L250.5,326.6z"/>
	<path class="st2" d="M374.5,338.9c-3.8,2-12.2,4.8-22.9,4.8c-24,0-39.7-16.9-39.7-42.2c0-25.4,16.8-43.9,42.8-43.9
		c8.6,0,16.1,2.2,20.1,4.3l-3.3,11.6c-3.5-2-8.9-3.9-16.8-3.9c-18.3,0-28.2,14-28.2,31.2c0,19.1,11.9,30.9,27.7,30.9
		c8.2,0,13.7-2.2,17.8-4.1L374.5,338.9z"/>
	<path class="st2" d="M435.6,342l-1.2-10.4H434c-4.4,6.5-13,12.3-24.4,12.3c-16.1,0-24.4-11.8-24.4-23.7c0-20,17.1-30.9,47.9-30.7
		v-1.7c0-6.8-1.8-19.1-18.1-19.1c-7.4,0-15.2,2.4-20.8,6.1l-3.3-9.9c6.6-4.4,16.1-7.3,26.2-7.3c24.4,0,30.3,17.2,30.3,33.8v30.9
		c0,7.2,0.3,14.2,1.3,19.8L435.6,342L435.6,342z M433.5,299.8c-15.8-0.3-33.8,2.6-33.8,18.6c0,9.7,6.3,14.3,13.7,14.3
		c10.4,0,17-6.8,19.3-13.8c0.5-1.5,0.8-3.2,0.8-4.8V299.8z"/>
	<path class="st2" d="M470.9,220.7h14.5V342h-14.5V220.7z"/>
</g>
</svg>
