<?xml version="1.0" encoding="utf-8"?>
<!-- Generator: Adobe Illustrator 27.0.0, SVG Export Plug-In . SVG Version: 6.00 Build 0)  -->
<svg version="1.1" id="Layer_1" xmlns="http://www.w3.org/2000/svg" xmlns:xlink="http://www.w3.org/1999/xlink" x="0px" y="0px"
	 viewBox="0 0 78.7 74.8" style="enable-background:new 0 0 78.7 74.8;" xml:space="preserve">
<style type="text/css">
	.st0{fill:#764ABC;}
</style>
<g>
	<path class="st0" d="M54.5,52.2c2.9-0.3,5.1-2.8,5-5.8S56.9,41,53.9,41h-0.2c-3.1,0.1-5.5,2.7-5.4,5.8c0.1,1.5,0.7,2.8,1.6,3.7
		c-3.4,6.7-8.6,11.6-16.4,15.7C28.2,69,22.7,70,17.2,69.3c-4.5-0.6-8-2.6-10.2-5.9c-3.2-4.9-3.5-10.2-0.8-15.5
		c1.9-3.8,4.9-6.6,6.8-8c-0.4-1.3-1-3.5-1.3-5.1c-14.5,10.5-13,24.7-8.6,31.4c3.3,5,10,8.1,17.4,8.1c2,0,4-0.2,6-0.7
		C39.3,71.1,49,63.5,54.5,52.2z"/>
	<path class="st0" d="M72.1,39.8C64.5,30.9,53.3,26,40.5,26h-1.6c-0.9-1.8-2.8-3-4.9-3h-0.2c-3.1,0.1-5.5,2.7-5.4,5.8
		c0.1,3,2.6,5.4,5.6,5.4h0.2c2.2-0.1,4.1-1.5,4.9-3.4h1.8c7.6,0,14.8,2.2,21.3,6.5c5,3.3,8.6,7.6,10.6,12.8
		c1.7,4.2,1.6,8.3-0.2,11.8c-2.8,5.3-7.5,8.2-13.7,8.2c-4,0-7.8-1.2-9.8-2.1c-1.1,1-3.1,2.6-4.5,3.6c4.3,2,8.7,3.1,12.9,3.1
		c9.6,0,16.7-5.3,19.4-10.6C79.8,58.3,79.6,48.3,72.1,39.8z"/>
	<path class="st0" d="M21.3,53.9c0.1,3,2.6,5.4,5.6,5.4h0.2c3.1-0.1,5.5-2.7,5.4-5.8c-0.1-3-2.6-5.4-5.6-5.4h-0.2
		c-0.2,0-0.5,0-0.7,0.1C21.9,41.4,20.2,34,20.8,26c0.4-6,2.4-11.2,5.9-15.5C29.6,6.8,35.2,5,39,4.9c10.6-0.2,15.1,13,15.4,18.3
		c1.3,0.3,3.5,1,5,1.5C58.2,8.5,48.2,0.1,38.6,0.1c-9,0-17.3,6.5-20.6,16.1C13.4,29,16.4,41.3,22,51C21.5,51.7,21.2,52.8,21.3,53.9z
		"/>
</g>
</svg>
