<?xml version="1.0" encoding="utf-8"?>
<!-- Generator: Adobe Illustrator 27.0.0, SVG Export Plug-In . SVG Version: 6.00 Build 0)  -->
<svg version="1.1" id="Layer_1" xmlns="http://www.w3.org/2000/svg" xmlns:xlink="http://www.w3.org/1999/xlink" x="0px" y="0px"
	 viewBox="0 0 137.2 217.1" style="enable-background:new 0 0 137.2 217.1;" xml:space="preserve">
<style type="text/css">
	.st0{fill-rule:evenodd;clip-rule:evenodd;fill:#380D09;}
	.st1{fill-rule:evenodd;clip-rule:evenodd;fill:#555555;}
	.st2{fill-rule:evenodd;clip-rule:evenodd;fill:#DE3423;}
</style>
<path class="st0" d="M1.6,80.9c1.9,2.5,17.5,7.4,40.7,12.4c23.3,4.5,47.5,22.1,66.3,16.6c12.7-3.7,26.5-36.5,26.5-41.3v-0.5
	c0-3.4-2.6-6.1-6.9-8.4c-17.8-9.1-21.1-12.4-27.7-10.6C66.4,58.5,6.1,53.7,1.6,80.9z"/>
<path class="st0" d="M1.6,147.5c1.9,2.6,17.5,7.4,40.7,12.4c26,4.7,48.6,20.2,67.4,14.8c12.7-3.7,25.4-34.6,25.4-39.5v-0.5
	c0-3.4-2.6-6.1-6.9-8.4c-13.5-7.2-31.4-15.1-38-13.3C56,122.4,10.3,124.5,1.6,147.5z"/>
<path class="st1" d="M1.4,95.3v0.5l0,0C1.4,95.6,1.4,95.4,1.4,95.3z"/>
<path class="st2" d="M109.7,14.9C78.3,24,28.4,29.1,1.5,29.1l0,0v51.3c0,0.2,0.1,0.3,0.2,0.5c18.4,0,75-6,109.2-15.4
	c6-1.5,11.8-3.5,17.5-5.8c4.2-1.9,6.9-3.9,6.9-5.9V2C135.2,6.9,122.5,11.2,109.7,14.9z"/>
<path class="st2" d="M109.7,81.5C90.9,86.9,65.5,91,42.3,93.3c-15.5,1.6-30.1,2.4-40.9,2.4l0,0V147c0,0.2,0.1,0.3,0.2,0.5
	c18.4,0,75-6,109.2-15.4c6-1.5,11.8-3.5,17.5-5.8c4.2-1.9,6.9-3.9,6.9-5.9V68.6C135.2,73.5,122.5,77.8,109.7,81.5z"/>
<path class="st2" d="M109.8,148.1c-18.8,5.4-44.2,9.5-67.4,11.8c-15.6,1.6-30.1,2.4-40.9,2.4v51.8c18.2,0,75.1-5.9,109.4-15.4
	c12.6-3.5,24.4-7.4,24.4-11.7v-51.8C135.2,140.1,122.5,144.4,109.8,148.1z"/>
</svg>
